<svg width="129" height="30" viewBox="0 0 129 30" fill="none" xmlns="http://www.w3.org/2000/svg">
<path d="M24.2235 8.67234C22.9435 8.64034 21.1515 8.41634 20.0955 8.92834C23.3595 10.3363 25.1195 12.7683 25.4715 15.5203C25.8235 17.9523 24.8955 20.2243 22.9435 21.8243C21.6315 22.9123 19.9355 23.0723 19.2955 23.0723C16.8315 23.0723 15.0395 22.4323 13.4395 20.7043C11.8395 22.3043 9.72755 22.9443 7.67955 22.9443C4.83155 22.9443 2.30355 21.3443 0.991547 18.8163C0.255547 17.3763 -0.000453122 15.6163 0.383547 13.9843C1.11955 10.8803 3.64755 8.64034 6.84755 8.64034C10.4315 8.64034 12.9595 11.1363 14.6555 14.5603L15.7755 16.9283C16.4795 15.5203 18.2715 11.8403 17.8555 12.6723L17.0235 12.2883C13.4715 10.7203 9.47155 7.87234 9.47155 4.64034C9.47155 3.71234 9.98355 2.43233 10.6235 1.76033C12.1595 0.000335693 14.7835 0.0963345 16.4475 1.08834C17.8555 1.95234 19.0075 3.71234 18.0155 6.04834C17.7915 6.56034 17.3435 7.10433 16.6715 7.71234L19.9355 8.86434C21.7275 6.14433 23.6795 4.76834 26.3035 4.44834L25.3435 8.67234H24.2235ZM11.6475 5.47234C12.7995 6.27234 14.5275 6.94434 16.3835 7.61633C17.0875 7.00834 17.5355 6.43233 17.7595 5.95234C18.6875 3.77633 17.6315 2.14433 16.2875 1.34434C15.6475 0.928335 14.8475 0.672335 14.0475 0.640335C12.0315 0.640335 10.7515 1.85633 10.6235 3.13634C10.4955 4.03234 10.7835 4.86434 11.6475 5.47234ZM13.2795 20.5123C12.0635 19.1363 11.5835 17.9203 10.3675 15.5203C8.86355 12.3203 7.61555 9.69633 5.24755 9.69633C2.78355 9.69633 1.27955 11.6163 0.639547 14.0483C0.287547 15.6163 0.511547 17.3123 1.21555 18.6883C1.43955 19.1043 3.39155 22.6883 7.64755 22.6883C9.95155 22.6883 11.8075 21.9203 13.2795 20.5123ZM23.6795 18.8483C23.3275 16.5763 21.1515 14.2083 18.1115 12.7683L15.9035 17.2483C16.8955 19.3923 17.9835 21.6643 19.5515 22.2723C22.0475 23.0403 24.0635 21.0883 23.6795 18.8483ZM34.8615 14.9443C34.8615 10.4643 37.7735 6.78434 41.3575 6.78434C43.2775 6.78434 44.7815 7.55233 45.9015 8.86434V3.96833L44.1735 2.81634L50.0615 0.864334V20.9923L51.7895 22.9443H45.9015V21.0243C44.7175 22.4323 43.1175 23.1043 41.3575 23.1043C37.7735 23.1043 34.8615 19.4243 34.8615 14.9443ZM39.0535 14.9443C39.0535 18.3043 40.5575 22.3683 43.0215 22.3683C44.1095 22.3683 45.1335 21.5363 45.9015 20.5443V9.34434C45.1335 8.35233 44.1095 7.52034 43.0215 7.52034C40.5575 7.52034 39.0535 11.5843 39.0535 14.9443ZM61.5403 23.1043C56.8363 23.1043 53.2203 19.4883 53.2203 14.9763C53.2203 10.4323 56.9003 6.78434 61.4123 6.78434C64.1963 6.78434 66.7883 8.19234 68.3243 10.5923H62.1163C66.4043 11.3283 69.0923 13.6323 69.0923 17.0883C69.0923 20.1283 66.4043 23.1043 61.5403 23.1043ZM59.8443 7.36034C58.0523 7.36034 57.0603 8.44834 56.8363 10.3363H63.4603C62.9483 8.67234 61.5083 7.36034 59.8443 7.36034ZM56.8043 10.5923C56.3563 15.7443 59.5883 21.2483 64.1963 21.2483C66.8203 21.2483 68.7083 19.0083 68.7083 16.5763C68.7083 12.9283 64.3563 10.5923 59.7163 10.5923H56.8043ZM78.9533 13.4723C81.2573 14.6883 83.2093 16.3843 83.2093 18.3363C83.2093 21.1203 80.5853 22.9443 77.6093 22.9443H71.5293L70.9853 17.6963L76.3933 22.5603C76.7773 22.6243 77.1613 22.6563 77.6093 22.6563C79.4333 22.6563 80.9373 21.9523 80.9373 20.8003C80.9373 19.0403 77.7373 17.6963 75.6893 16.5443L74.1853 15.7123C72.1693 14.5923 70.7933 12.9923 70.7933 11.1043C70.7933 8.54434 73.1293 6.94434 75.8173 6.94434H81.4493L82.0893 11.9363L77.2253 7.36034C76.9373 7.29634 76.3293 7.23234 75.8173 7.23234C74.5693 7.23234 72.8733 7.55233 72.8733 8.76834C72.8733 10.2723 74.5693 11.1683 77.0013 12.4483L78.9533 13.4723ZM88.3565 5.63234C87.0445 5.63234 85.9885 4.57634 85.9885 3.26434C85.9885 1.95234 87.0445 0.896336 88.3565 0.896336C89.6685 0.896336 90.7245 1.95234 90.7245 3.26434C90.7245 4.57634 89.6685 5.63234 88.3565 5.63234ZM84.6445 22.9443L86.3725 20.9923V10.0163L84.6445 8.86434L90.5325 6.94434V20.9923L92.2605 22.9443H84.6445ZM112.042 24.4163C112.042 27.1683 109.354 28.8003 107.018 28.8003C104.938 28.8003 102.666 27.8083 101.802 26.1443C100.81 28.1283 99.3378 29.6643 97.0978 29.6643C95.0818 29.6643 93.3218 28.1923 93.3218 26.3683C93.3218 23.5523 96.4258 22.4323 98.5698 21.8883L100.714 21.3443C96.7458 21.3123 93.5458 18.0163 93.5458 14.0803C93.5458 10.1123 96.7458 6.78434 100.842 6.78434C102.57 6.78434 104.266 7.42434 105.61 8.60834H105.642L109.642 6.33633V9.76033H106.89V10.0483C107.658 11.2643 108.074 12.6083 108.074 14.0483C108.074 17.3763 105.77 20.1923 103.402 20.8323L98.9858 22.0483C97.6418 22.4003 96.2338 23.2963 96.2338 24.4483C96.2338 25.2483 96.8098 25.7283 97.6098 25.7283C98.5698 25.7283 99.7858 24.6403 100.81 23.8083C102.666 22.3043 104.81 20.5763 107.722 20.5763C110.314 20.5763 112.042 22.2083 112.042 24.4163ZM98.6978 7.48834C97.5778 7.48834 97.0658 8.89634 97.0658 10.6243C97.0658 16.0003 100.938 20.5763 103.05 20.5763C104.234 20.5763 104.522 18.4003 104.522 17.2803C104.522 12.2243 100.65 7.48834 98.6978 7.48834ZM105.354 28.0963C107.306 28.0963 108.458 25.9523 108.458 24.0963C108.458 22.5603 107.53 21.2163 106.026 21.2163C104.202 21.2163 103.146 23.3923 102.378 24.9923L101.962 25.8563C102.506 27.0723 104.01 28.0963 105.354 28.0963ZM126.407 11.4243V20.9923L128.135 22.9443H120.519L122.247 20.9923V11.4563C122.247 9.82434 120.967 8.54434 119.559 8.54434C118.695 8.54434 117.799 8.96034 117.031 9.79234V20.9923L118.759 22.9443H111.143L112.871 20.9923V10.2723L111.143 9.12034L117.031 6.94434V9.40834C118.663 7.74434 120.455 6.84834 122.151 6.84834C124.679 6.84834 126.407 8.86434 126.407 11.4243Z" fill="black"/>
</svg>
