<svg width="88" height="29" viewBox="0 0 88 29" fill="none" xmlns="http://www.w3.org/2000/svg">
<path d="M0.000339627 14.0801C0.000339627 9.60008 2.91234 5.92008 6.49634 5.92008C8.41634 5.92008 9.92034 6.68808 11.0403 8.00008V3.10408L9.31234 1.95208L15.2003 7.62939e-05V20.1281L16.9283 22.0801H11.0403V20.1601C9.85634 21.5681 8.25634 22.2401 6.49634 22.2401C2.91234 22.2401 0.000339627 18.5601 0.000339627 14.0801ZM4.19234 14.0801C4.19234 17.4401 5.69634 21.5041 8.16034 21.5041C9.24834 21.5041 10.2723 20.6721 11.0403 19.6801V8.48008C10.2723 7.48808 9.24834 6.65608 8.16034 6.65608C5.69634 6.65608 4.19234 10.7201 4.19234 14.0801ZM21.9341 4.76808C20.6221 4.76808 19.5661 3.71208 19.5661 2.40008C19.5661 1.08808 20.6221 0.0320778 21.9341 0.0320778C23.2461 0.0320778 24.3021 1.08808 24.3021 2.40008C24.3021 3.71208 23.2461 4.76808 21.9341 4.76808ZM18.2221 22.0801L19.9501 20.1281V9.15208L18.2221 8.00008L24.1101 6.08008V20.1281L25.8381 22.0801H18.2221ZM45.6193 23.5521C45.6193 26.3041 42.9313 27.9361 40.5953 27.9361C38.5153 27.9361 36.2433 26.9441 35.3793 25.2801C34.3873 27.2641 32.9153 28.8001 30.6753 28.8001C28.6593 28.8001 26.8993 27.3281 26.8993 25.5041C26.8993 22.6881 30.0033 21.5681 32.1473 21.0241L34.2913 20.4801C30.3233 20.4481 27.1233 17.1521 27.1233 13.2161C27.1233 9.24808 30.3233 5.92008 34.4193 5.92008C36.1473 5.92008 37.8433 6.56008 39.1873 7.74408H39.2193L43.2193 5.47208V8.89608H40.4673V9.18408C41.2353 10.4001 41.6513 11.7441 41.6513 13.1841C41.6513 16.5121 39.3473 19.3281 36.9793 19.9681L32.5633 21.1841C31.2193 21.5361 29.8113 22.4321 29.8113 23.5841C29.8113 24.3841 30.3873 24.8641 31.1873 24.8641C32.1473 24.8641 33.3633 23.7761 34.3873 22.9441C36.2433 21.4401 38.3873 19.7121 41.2993 19.7121C43.8913 19.7121 45.6193 21.3441 45.6193 23.5521ZM32.2753 6.62408C31.1553 6.62408 30.6433 8.03208 30.6433 9.76008C30.6433 15.1361 34.5153 19.7121 36.6273 19.7121C37.8113 19.7121 38.0993 17.5361 38.0993 16.4161C38.0993 11.3601 34.2273 6.62408 32.2753 6.62408ZM38.9313 27.2321C40.8833 27.2321 42.0353 25.0881 42.0353 23.2321C42.0353 21.6961 41.1073 20.3521 39.6033 20.3521C37.7793 20.3521 36.7233 22.5281 35.9553 24.1281L35.5393 24.9921C36.0833 26.2081 37.5873 27.2321 38.9313 27.2321ZM48.4328 4.76808C47.1208 4.76808 46.0648 3.71208 46.0648 2.40008C46.0648 1.08808 47.1208 0.0320778 48.4328 0.0320778C49.7448 0.0320778 50.8008 1.08808 50.8008 2.40008C50.8008 3.71208 49.7448 4.76808 48.4328 4.76808ZM44.7208 22.0801L46.4488 20.1281V9.15208L44.7208 8.00008L50.6088 6.08008V20.1281L52.3368 22.0801H44.7208ZM61.8438 21.8561V21.9841C61.4278 22.1441 61.0118 22.2081 60.6278 22.2081C56.5958 22.2081 54.8358 19.8721 54.8358 15.9361V6.33608H52.8518L58.9958 2.17608V6.08008H61.8118V6.33608H58.9958V17.4401C58.9958 20.0961 59.6998 21.9841 61.8438 21.8561ZM62.1608 16.6401C62.1608 13.4401 64.7528 11.0721 67.8568 11.0721C69.8728 11.0721 70.5128 11.6801 71.1528 12.2881C70.5768 11.4561 69.0728 9.69608 66.6408 9.69608H64.2408C65.4568 7.48808 68.4328 5.92008 71.3128 5.92008C74.1928 5.92008 76.8808 7.16808 76.8808 10.3041V20.1281L78.6088 22.0801H72.7208V18.1761C71.7288 20.9921 69.6808 22.1761 67.5048 22.1761C64.4968 22.1761 62.1608 19.7441 62.1608 16.6401ZM68.3688 9.72808C69.2968 10.0801 71.7288 11.2961 72.7208 15.1041V8.73608C72.7208 7.10408 72.2088 6.30408 71.2168 6.30408C69.6488 6.30408 68.7528 8.06408 68.3688 9.72808ZM66.0008 14.9441C66.0008 17.4721 67.8568 20.2881 70.0008 20.2881C71.8248 20.2881 72.6568 18.4321 72.6568 16.6721C72.6568 14.3681 70.9928 11.3921 68.6568 11.3921C66.9608 11.3921 66.0008 13.1201 66.0008 14.9441ZM85.6196 7.62939e-05V20.1281L87.3476 22.0801H79.7316L81.4596 20.1281V3.10408L79.7316 1.95208L85.6196 7.62939e-05Z" fill="black"/>
</svg>
