<svg width="208" height="127" viewBox="0 0 208 127" fill="none" xmlns="http://www.w3.org/2000/svg">
<path fill-rule="evenodd" clip-rule="evenodd" d="M170.771 1.26946C170.772 1.27279 170.773 1.27614 170.774 1.27949L170.771 1.26946Z" fill="#242021"/>
<path fill-rule="evenodd" clip-rule="evenodd" d="M0 127C6.60909 120.372 6.60954 109.625 0 102.997C6.60954 109.625 17.3262 109.625 23.9353 102.997C17.3262 109.625 17.3257 120.372 23.9353 127C17.3257 120.372 6.60909 120.372 0 127Z" fill="#242021"/>
<path fill-rule="evenodd" clip-rule="evenodd" d="M170.764 1.25155L170.762 1.24556L170.758 1.23523C170.704 1.09133 170.653 0.956916 170.606 0.832832" fill="#242021"/>
<path fill-rule="evenodd" clip-rule="evenodd" d="M170.756 1.22935C170.672 1.00853 170.598 0.810147 170.533 0.63729C170.598 0.811681 170.674 1.01205 170.758 1.23523L170.756 1.22935Z" fill="#242021"/>
<path fill-rule="evenodd" clip-rule="evenodd" d="M170.774 1.27949L170.771 1.26946L170.768 1.26302L170.764 1.25155L170.762 1.24556L170.758 1.23523C170.535 0.643352 170.372 0.211906 170.295 0H206.404C203.817 1.66682 200.937 3.87134 197.91 6.18838C191.246 11.2896 183.869 16.9364 177.346 18.5913C135.81 30.9004 158.825 86.7575 129.519 114.068C116.193 124.855 108.226 126.867 84.1663 126.867C61.6402 126.867 41.8808 115.086 30.6136 97.3752C24.3995 87.5825 20.8018 76.2188 20.8018 63.8057C20.8018 28.5443 49.2851 0.0844538 84.2173 0.0844538C97.6017 0.0844538 110.371 4.23734 121.011 11.8354C125.115 14.766 128.902 20.5362 132.286 25.6916C133.515 27.5642 134.691 29.3556 135.809 30.9004H126.93C123.661 30.9004 121.011 28.2426 121.011 24.9641C121.011 28.2426 118.36 30.8994 115.091 30.8994H104.639C101.327 18.2454 77.7683 7.96012 65.5867 7.96012C47.8521 7.96012 36.2079 21.7425 36.2079 41.9687C36.2079 50.9681 38.1366 60.5963 41.6429 69.8824C44.9016 78.5126 42.9706 88.6895 35.521 94.0897C43.6445 90.1342 53.7762 92.9808 60.2657 99.7554C80.1992 118.995 116.74 118.76 131.67 103.789C153.929 75.1482 134.379 28.8486 175.99 16.9785C176.635 16.8335 172.315 5.36869 170.774 1.27949ZM109.873 44.3208L105.208 35.7029H115.355C118.625 35.7029 121.275 38.3606 121.275 41.6392C121.275 38.3606 123.925 35.7029 127.194 35.7029H136.919L132.329 44.363V92.989C132.329 103.108 118.028 107.029 110.215 109.05L109.873 44.3208ZM153.721 62.8224L175.551 119.101L168.731 126.443H207.266L199.423 118.076L162.77 35.7029C157.786 41.0583 151.851 57.1997 153.721 62.8224Z" fill="#242021"/>
</svg>
