<svg width="137" height="84" viewBox="0 0 137 84" fill="none" xmlns="http://www.w3.org/2000/svg">
<path fill-rule="evenodd" clip-rule="evenodd" d="M112.877 0.839642C112.878 0.841848 112.879 0.844063 112.879 0.846276L112.877 0.839642Z" fill="#272727"/>
<path fill-rule="evenodd" clip-rule="evenodd" d="M0 84C4.36851 79.6162 4.36881 72.5079 0 68.1238C4.36881 72.5079 11.4524 72.5076 15.8209 68.1238C11.4524 72.5076 11.4521 79.6159 15.8209 84C11.4521 79.6159 4.36851 79.6162 0 84Z" fill="#272727"/>
<path fill-rule="evenodd" clip-rule="evenodd" d="M112.873 0.8278L112.871 0.823834L112.868 0.817005C112.833 0.721827 112.799 0.632921 112.768 0.550849" fill="#272727"/>
<path fill-rule="evenodd" clip-rule="evenodd" d="M112.867 0.813115C112.812 0.667059 112.763 0.535845 112.72 0.421515C112.763 0.53686 112.813 0.669388 112.868 0.817005L112.867 0.813115Z" fill="#272727"/>
<path fill-rule="evenodd" clip-rule="evenodd" d="M112.879 0.846276L112.877 0.839642L112.875 0.83538L112.873 0.8278L112.871 0.823834L112.868 0.817005C112.721 0.425524 112.614 0.140158 112.562 0H136.43C134.72 1.10247 132.817 2.56057 130.816 4.0931C126.411 7.46717 121.535 11.202 117.223 12.2966C89.7682 20.4381 104.981 57.3829 85.6102 75.4465C76.8016 82.5813 71.5357 83.9118 55.6327 83.9118C40.7433 83.9118 27.6826 76.1201 20.2351 64.4057C16.1277 57.9286 13.7497 50.4125 13.7497 42.2022C13.7497 18.8797 32.5767 0.0558592 55.6664 0.0558592C64.5134 0.0558592 72.9534 2.80265 79.9864 7.82811C82.6991 9.7665 85.2025 13.583 87.4392 16.9929C88.2516 18.2314 89.0289 19.4163 89.7681 20.4381H83.8991C81.7381 20.4381 79.9864 18.6802 79.9864 16.5117C79.9864 18.6802 78.2346 20.4374 76.0736 20.4374H69.1649C66.9757 12.0678 51.4037 5.26496 43.3519 5.26496C31.6296 5.26496 23.9329 14.3809 23.9329 27.7588C23.9329 33.7112 25.2077 40.0795 27.5254 46.2214C29.6793 51.9296 28.4029 58.6608 23.4789 62.2325C28.8484 59.6163 35.5453 61.4991 39.8348 65.98C53.0105 78.7056 77.1637 78.5499 87.0317 68.6475C101.745 49.7044 88.8225 19.0809 116.327 11.2299C116.753 11.134 113.898 3.55094 112.879 0.846276ZM72.6246 29.3145L69.5407 23.6145H76.2482C78.4091 23.6145 80.1609 25.3724 80.1609 27.5409C80.1609 25.3724 81.9127 23.6145 84.0737 23.6145H90.5017L87.4673 29.3425V61.5045C87.4673 68.1972 78.0148 70.7911 72.8503 72.1277L72.6246 29.3145ZM101.607 41.5518L116.037 78.7753L111.529 83.6319H137L131.816 78.0976L107.588 23.6145C104.294 27.1567 100.372 37.8329 101.607 41.5518Z" fill="#272727"/>
</svg>
